# Blender v2.79 (sub 0) OBJ File: ''
# www.blender.org
mtllib gusano.mtl
o Cylinder
v -0.016629 -0.356698 -0.100000
v -0.016791 -0.235667 -0.100000
v 0.002880 -0.356672 -0.098079
v 0.002718 -0.235641 -0.098079
v 0.021640 -0.356646 -0.092388
v 0.021477 -0.235616 -0.092388
v 0.038928 -0.356623 -0.083147
v 0.038766 -0.235592 -0.083147
v 0.054082 -0.356603 -0.070711
v 0.053919 -0.235572 -0.070711
v 0.066518 -0.356586 -0.055557
v 0.066356 -0.235555 -0.055557
v 0.075759 -0.356573 -0.038268
v 0.075596 -0.235543 -0.038268
v 0.081450 -0.356566 -0.019509
v 0.081287 -0.235535 -0.019509
v 0.083371 -0.356563 -0.000000
v 0.083209 -0.235533 -0.000000
v 0.081450 -0.356566 0.019509
v 0.081287 -0.235535 0.019509
v 0.075759 -0.356573 0.038268
v 0.075596 -0.235543 0.038268
v 0.066518 -0.356586 0.055557
v 0.066356 -0.235555 0.055557
v 0.054082 -0.356603 0.070711
v 0.053919 -0.235572 0.070711
v 0.038928 -0.356623 0.083147
v 0.038766 -0.235592 0.083147
v 0.021640 -0.356646 0.092388
v 0.021477 -0.235616 0.092388
v 0.002880 -0.356672 0.098078
v 0.002718 -0.235641 0.098078
v -0.016629 -0.356698 0.100000
v -0.016791 -0.235667 0.100000
v -0.036138 -0.356724 0.098078
v -0.036300 -0.235693 0.098078
v -0.054897 -0.356749 0.092388
v -0.055060 -0.235719 0.092388
v -0.072186 -0.356772 0.083147
v -0.072348 -0.235742 0.083147
v -0.087339 -0.356793 0.070711
v -0.087502 -0.235762 0.070711
v -0.099776 -0.356809 0.055557
v -0.099938 -0.235779 0.055557
v -0.109017 -0.356822 0.038268
v -0.109179 -0.235791 0.038268
v -0.114707 -0.356830 0.019509
v -0.114870 -0.235799 0.019509
v -0.116629 -0.356832 -0.000000
v -0.116791 -0.235801 -0.000000
v -0.114707 -0.356830 -0.019509
v -0.114870 -0.235799 -0.019509
v -0.109017 -0.356822 -0.038269
v -0.109179 -0.235791 -0.038269
v -0.099776 -0.356809 -0.055557
v -0.099938 -0.235779 -0.055557
v -0.087339 -0.356793 -0.070711
v -0.087502 -0.235762 -0.070711
v -0.072186 -0.356772 -0.083147
v -0.072348 -0.235742 -0.083147
v -0.054897 -0.356749 -0.092388
v -0.055060 -0.235718 -0.092388
v -0.036138 -0.356724 -0.098079
v -0.036300 -0.235693 -0.098079
v 0.002591 -0.142073 -0.098079
v -0.016918 -0.142099 -0.100000
v 0.021350 -0.142048 -0.092388
v 0.038639 -0.142025 -0.083147
v 0.053793 -0.142005 -0.070711
v 0.066229 -0.141988 -0.055557
v 0.075470 -0.141976 -0.038268
v 0.081161 -0.141968 -0.019509
v 0.083082 -0.141965 -0.000000
v 0.081161 -0.141968 0.019509
v 0.075470 -0.141976 0.038268
v 0.066229 -0.141988 0.055557
v 0.053793 -0.142005 0.070711
v 0.038639 -0.142025 0.083147
v 0.021351 -0.142048 0.092388
v 0.002591 -0.142073 0.098079
v -0.016918 -0.142099 0.100000
v -0.036427 -0.142126 0.098078
v -0.055186 -0.142151 0.092388
v -0.072475 -0.142174 0.083147
v -0.087628 -0.142194 0.070711
v -0.100065 -0.142211 0.055557
v -0.109306 -0.142223 0.038268
v -0.114996 -0.142231 0.019509
v -0.116918 -0.142233 -0.000000
v -0.114996 -0.142231 -0.019509
v -0.109306 -0.142223 -0.038268
v -0.100065 -0.142211 -0.055557
v -0.087628 -0.142194 -0.070711
v -0.072475 -0.142174 -0.083147
v -0.055186 -0.142151 -0.092388
v -0.036427 -0.142126 -0.098079
v 0.002460 -0.050712 -0.098079
v -0.017049 -0.050734 -0.100000
v 0.021219 -0.050690 -0.092388
v 0.038508 -0.050670 -0.083147
v 0.053661 -0.050652 -0.070711
v 0.066098 -0.050638 -0.055557
v 0.075339 -0.050627 -0.038268
v 0.081029 -0.050621 -0.019509
v 0.082951 -0.050618 -0.000000
v 0.081029 -0.050620 0.019509
v 0.075339 -0.050627 0.038268
v 0.066098 -0.050638 0.055557
v 0.053662 -0.050652 0.070711
v 0.038508 -0.050670 0.083147
v 0.021219 -0.050690 0.092388
v 0.002460 -0.050712 0.098079
v -0.017049 -0.050734 0.100000
v -0.036558 -0.050757 0.098078
v -0.055317 -0.050779 0.092388
v -0.072606 -0.050799 0.083147
v -0.087760 -0.050816 0.070711
v -0.100196 -0.050831 0.055557
v -0.109437 -0.050842 0.038268
v -0.115128 -0.050848 0.019509
v -0.117049 -0.050850 -0.000000
v -0.115128 -0.050848 -0.019509
v -0.109437 -0.050841 -0.038268
v -0.100196 -0.050831 -0.055557
v -0.087760 -0.050816 -0.070711
v -0.072606 -0.050799 -0.083147
v -0.055317 -0.050779 -0.092388
v -0.036558 -0.050757 -0.098079
v 0.002392 0.058113 -0.098079
v -0.017117 0.058110 -0.100000
v 0.021151 0.058116 -0.092388
v 0.038440 0.058120 -0.083147
v 0.053594 0.058122 -0.070711
v 0.066030 0.058124 -0.055557
v 0.075271 0.058126 -0.038268
v 0.080962 0.058127 -0.019509
v 0.082883 0.058127 -0.000000
v 0.080962 0.058127 0.019509
v 0.075271 0.058126 0.038268
v 0.066030 0.058124 0.055557
v 0.053594 0.058122 0.070711
v 0.038440 0.058119 0.083147
v 0.021151 0.058116 0.092388
v 0.002392 0.058113 0.098079
v -0.017117 0.058110 0.100000
v -0.036626 0.058106 0.098078
v -0.055385 0.058103 0.092388
v -0.072674 0.058100 0.083147
v -0.087828 0.058097 0.070711
v -0.100264 0.058095 0.055557
v -0.109505 0.058093 0.038268
v -0.115196 0.058092 0.019509
v -0.117117 0.058092 -0.000000
v -0.115196 0.058092 -0.019509
v -0.109505 0.058093 -0.038268
v -0.100264 0.058095 -0.055557
v -0.087828 0.058097 -0.070711
v -0.072674 0.058100 -0.083147
v -0.055385 0.058103 -0.092388
v -0.036626 0.058106 -0.098079
v 0.002403 0.159803 -0.098079
v -0.017106 0.159803 -0.100000
v 0.021162 0.159803 -0.092388
v 0.038451 0.159803 -0.083147
v 0.053604 0.159803 -0.070711
v 0.066041 0.159803 -0.055557
v 0.075282 0.159803 -0.038268
v 0.080972 0.159803 -0.019509
v 0.082894 0.159803 -0.000000
v 0.080972 0.159803 0.019509
v 0.075282 0.159803 0.038268
v 0.066041 0.159803 0.055557
v 0.053604 0.159803 0.070711
v 0.038451 0.159803 0.083147
v 0.021162 0.159803 0.092388
v 0.002403 0.159803 0.098079
v -0.017106 0.159803 0.100000
v -0.036615 0.159803 0.098078
v -0.055375 0.159803 0.092388
v -0.072663 0.159803 0.083147
v -0.087817 0.159803 0.070711
v -0.100253 0.159803 0.055557
v -0.109494 0.159803 0.038268
v -0.115185 0.159803 0.019509
v -0.117106 0.159803 -0.000000
v -0.115185 0.159803 -0.019509
v -0.109494 0.159803 -0.038268
v -0.100253 0.159803 -0.055557
v -0.087817 0.159803 -0.070711
v -0.072663 0.159803 -0.083147
v -0.055375 0.159803 -0.092388
v -0.036615 0.159803 -0.098079
v 0.002403 0.267058 -0.098079
v -0.017106 0.267058 -0.100000
v 0.021162 0.267058 -0.092388
v 0.038451 0.267058 -0.083147
v 0.053604 0.267058 -0.070711
v 0.066041 0.267058 -0.055557
v 0.075282 0.267058 -0.038268
v 0.080972 0.267058 -0.019509
v 0.082894 0.267058 -0.000000
v 0.080972 0.267058 0.019509
v 0.075282 0.267058 0.038268
v 0.066041 0.267058 0.055557
v 0.053604 0.267058 0.070711
v 0.038451 0.267058 0.083147
v 0.021162 0.267058 0.092388
v 0.002403 0.267058 0.098079
v -0.017106 0.267058 0.100000
v -0.036615 0.267058 0.098078
v -0.055375 0.267058 0.092388
v -0.072663 0.267058 0.083147
v -0.087817 0.267058 0.070711
v -0.100253 0.267058 0.055557
v -0.109494 0.267058 0.038268
v -0.115185 0.267058 0.019509
v -0.117106 0.267058 -0.000000
v -0.115185 0.267058 -0.019509
v -0.109494 0.267058 -0.038268
v -0.100253 0.267058 -0.055557
v -0.087817 0.267058 -0.070711
v -0.072663 0.267058 -0.083147
v -0.055375 0.267058 -0.092388
v -0.036615 0.267058 -0.098079
v 0.002403 0.367957 -0.098079
v -0.017106 0.367957 -0.100000
v 0.021162 0.367957 -0.092388
v 0.038451 0.367957 -0.083147
v 0.053604 0.367957 -0.070711
v 0.066041 0.367957 -0.055557
v 0.075282 0.367957 -0.038268
v 0.080972 0.367957 -0.019509
v 0.082894 0.367957 -0.000000
v 0.080972 0.367957 0.019509
v 0.075282 0.367957 0.038268
v 0.066041 0.367957 0.055557
v 0.053604 0.367957 0.070711
v 0.038451 0.367957 0.083147
v 0.021162 0.367957 0.092388
v 0.002403 0.367957 0.098079
v -0.017106 0.367957 0.100000
v -0.036615 0.367957 0.098078
v -0.055375 0.367957 0.092388
v -0.072663 0.367957 0.083147
v -0.087817 0.367957 0.070711
v -0.100253 0.367957 0.055557
v -0.109494 0.367957 0.038268
v -0.115185 0.367957 0.019509
v -0.117106 0.367957 -0.000000
v -0.115185 0.367957 -0.019509
v -0.109494 0.367957 -0.038268
v -0.100253 0.367957 -0.055557
v -0.087817 0.367957 -0.070711
v -0.072663 0.367957 -0.083147
v -0.055375 0.367957 -0.092388
v -0.036615 0.367957 -0.098079
vn 0.0980 0.0001 -0.9952
vn 0.2903 0.0004 -0.9569
vn 0.4714 0.0006 -0.8819
vn 0.6344 0.0009 -0.7730
vn 0.7730 0.0010 -0.6344
vn 0.8819 0.0012 -0.4714
vn 0.9569 0.0013 -0.2903
vn 0.9952 0.0013 -0.0980
vn 0.9952 0.0013 0.0980
vn 0.9569 0.0013 0.2903
vn 0.8819 0.0012 0.4714
vn 0.7730 0.0010 0.6344
vn 0.6344 0.0009 0.7730
vn 0.4714 0.0006 0.8819
vn 0.2903 0.0004 0.9569
vn 0.0980 0.0001 0.9952
vn -0.0980 -0.0001 0.9952
vn -0.2903 -0.0004 0.9569
vn -0.4714 -0.0006 0.8819
vn -0.6344 -0.0009 0.7730
vn -0.7730 -0.0010 0.6344
vn -0.8819 -0.0012 0.4714
vn -0.9569 -0.0013 0.2903
vn -0.9952 -0.0013 0.0980
vn -0.9952 -0.0013 -0.0980
vn -0.9569 -0.0013 -0.2903
vn -0.8819 -0.0012 -0.4714
vn -0.7730 -0.0010 -0.6344
vn -0.6344 -0.0009 -0.7730
vn -0.4714 -0.0006 -0.8819
vn -0.2903 -0.0004 -0.9569
vn -0.0980 -0.0001 -0.9952
vn 0.0013 -1.0000 0.0000
vn 0.0014 -1.0000 -0.0000
vn 0.9952 0.0014 -0.0980
vn -0.7730 -0.0011 0.6344
vn 0.9569 0.0014 -0.2903
vn 0.8819 0.0013 -0.4714
vn -0.4714 -0.0007 0.8819
vn 0.7730 0.0011 -0.6344
vn -0.4714 -0.0007 -0.8819
vn 0.4714 0.0007 -0.8819
vn -0.7730 -0.0011 -0.6344
vn 0.4714 0.0007 0.8819
vn -0.8819 -0.0013 -0.4714
vn -0.9569 -0.0014 -0.2903
vn 0.7730 0.0011 0.6344
vn -0.9952 -0.0014 -0.0980
vn 0.8819 0.0013 0.4714
vn -0.9952 -0.0014 0.0980
vn 0.9569 0.0014 0.2903
vn -0.9569 -0.0014 0.2903
vn 0.8819 0.0005 0.4714
vn -0.9952 -0.0006 0.0980
vn 0.9569 0.0006 0.2903
vn -0.9569 -0.0006 0.2903
vn 0.9952 0.0006 0.0980
vn -0.8819 -0.0006 0.4714
vn 0.9952 0.0006 -0.0980
vn -0.7730 -0.0005 0.6344
vn 0.9569 0.0006 -0.2903
vn -0.6344 -0.0004 0.7730
vn 0.8819 0.0006 -0.4714
vn -0.4714 -0.0003 0.8819
vn 0.7730 0.0005 -0.6344
vn -0.2903 -0.0002 0.9569
vn -0.2903 -0.0002 -0.9569
vn 0.6344 0.0004 -0.7730
vn -0.4714 -0.0003 -0.8819
vn 0.4714 0.0003 -0.8819
vn -0.6344 -0.0004 -0.7730
vn 0.2903 0.0002 -0.9569
vn 0.2903 0.0002 0.9569
vn -0.7730 -0.0005 -0.6344
vn 0.4714 0.0003 0.8819
vn -0.8819 -0.0006 -0.4714
vn 0.6344 0.0004 0.7730
vn -0.9569 -0.0006 -0.2903
vn -0.8819 -0.0013 0.4714
vn 0.9952 0.0014 0.0980
vn 0.0980 -0.0000 -0.9952
vn 0.4714 -0.0000 0.8819
vn -0.8819 0.0001 -0.4714
vn 0.6344 -0.0001 0.7730
vn -0.9569 0.0001 -0.2903
vn 0.7730 -0.0001 0.6344
vn -0.9952 0.0001 -0.0980
vn 0.8819 -0.0001 0.4714
vn -0.9952 0.0001 0.0980
vn 0.9569 -0.0001 0.2903
vn -0.9569 0.0001 0.2903
vn 0.9952 -0.0001 0.0980
vn -0.8819 0.0001 0.4714
vn 0.9952 -0.0001 -0.0980
vn -0.7730 0.0001 0.6344
vn 0.9569 -0.0001 -0.2903
vn -0.6344 0.0001 0.7730
vn 0.8819 -0.0001 -0.4714
vn -0.4714 0.0000 0.8819
vn -0.0980 0.0000 -0.9952
vn 0.7730 -0.0001 -0.6344
vn -0.2903 0.0000 0.9569
vn -0.2903 0.0000 -0.9569
vn 0.6344 -0.0001 -0.7730
vn -0.0980 0.0000 0.9952
vn -0.4714 0.0000 -0.8819
vn 0.4714 -0.0000 -0.8819
vn 0.0980 -0.0000 0.9952
vn -0.6344 0.0001 -0.7730
vn 0.2903 -0.0000 -0.9569
vn -0.9952 -0.0006 -0.0980
vn 0.7730 0.0005 0.6344
vn 0.6344 0.0000 -0.7730
vn -0.6344 0.0000 -0.7730
vn 0.2903 0.0000 0.9569
vn -0.7730 0.0000 -0.6344
vn -0.8819 0.0000 -0.4714
vn 0.6344 0.0000 0.7730
vn -0.9569 0.0000 -0.2903
vn 0.7730 0.0000 0.6344
vn -0.9952 0.0000 -0.0980
vn 0.8819 0.0000 0.4714
vn -0.9952 0.0000 0.0980
vn 0.9569 0.0000 0.2903
vn -0.9569 0.0000 0.2903
vn 0.9952 0.0000 0.0980
vn -0.8819 0.0000 0.4714
vn 0.9952 0.0000 -0.0980
vn -0.7730 0.0000 0.6344
vn 0.9569 0.0000 -0.2903
vn -0.6344 0.0000 0.7730
vn 0.8819 0.0000 -0.4714
vn 0.7730 0.0000 -0.6344
vn -0.7730 0.0001 -0.6344
vn 0.0000 1.0000 0.0000
vn 0.8819 0.0006 0.4714
usemtl None
s off
f 2//1 3//1 1//1
f 4//2 5//2 3//2
f 6//3 7//3 5//3
f 8//4 9//4 7//4
f 10//5 11//5 9//5
f 12//6 13//6 11//6
f 14//7 15//7 13//7
f 16//8 17//8 15//8
f 18//9 19//9 17//9
f 20//10 21//10 19//10
f 22//11 23//11 21//11
f 24//12 25//12 23//12
f 26//13 27//13 25//13
f 28//14 29//14 27//14
f 30//15 31//15 29//15
f 32//16 33//16 31//16
f 34//17 35//17 33//17
f 36//18 37//18 35//18
f 38//19 39//19 37//19
f 40//20 41//20 39//20
f 42//21 43//21 41//21
f 44//22 45//22 43//22
f 46//23 47//23 45//23
f 48//24 49//24 47//24
f 50//25 51//25 49//25
f 52//26 53//26 51//26
f 54//27 55//27 53//27
f 56//28 57//28 55//28
f 58//29 59//29 57//29
f 60//30 61//30 59//30
f 40//20 85//20 42//20
f 62//31 63//31 61//31
f 64//32 1//32 63//32
f 31//33 47//33 15//33
f 2//1 4//1 3//1
f 4//2 6//2 5//2
f 6//3 8//3 7//3
f 8//4 10//4 9//4
f 10//5 12//5 11//5
f 12//6 14//6 13//6
f 14//7 16//7 15//7
f 16//8 18//8 17//8
f 18//9 20//9 19//9
f 20//10 22//10 21//10
f 22//11 24//11 23//11
f 24//12 26//12 25//12
f 26//13 28//13 27//13
f 28//14 30//14 29//14
f 30//15 32//15 31//15
f 32//16 34//16 33//16
f 34//17 36//17 35//17
f 36//18 38//18 37//18
f 38//19 40//19 39//19
f 40//20 42//20 41//20
f 42//21 44//21 43//21
f 44//22 46//22 45//22
f 46//23 48//23 47//23
f 48//24 50//24 49//24
f 50//25 52//25 51//25
f 52//26 54//26 53//26
f 54//27 56//27 55//27
f 56//28 58//28 57//28
f 58//29 60//29 59//29
f 60//30 62//30 61//30
f 22//11 76//11 24//11
f 4//2 67//2 6//2
f 48//24 89//24 50//24
f 30//15 80//15 32//15
f 12//6 71//6 14//6
f 56//28 93//28 58//28
f 38//19 84//19 40//19
f 20//10 75//10 22//10
f 64//32 66//32 2//32
f 2//1 65//1 4//1
f 46//23 88//23 48//23
f 28//14 79//14 30//14
f 10//5 70//5 12//5
f 54//27 92//27 56//27
f 36//18 83//18 38//18
f 18//9 74//9 20//9
f 62//31 96//31 64//31
f 44//22 87//22 46//22
f 26//13 78//13 28//13
f 8//4 69//4 10//4
f 52//26 91//26 54//26
f 34//17 82//17 36//17
f 16//8 73//8 18//8
f 60//30 95//30 62//30
f 42//21 86//21 44//21
f 24//12 77//12 26//12
f 6//3 68//3 8//3
f 50//25 90//25 52//25
f 32//16 81//16 34//16
f 62//31 64//31 63//31
f 64//32 2//32 1//32
f 63//33 1//33 3//33
f 3//34 5//34 7//34
f 7//34 9//34 11//34
f 11//33 13//33 7//33
f 15//33 17//33 19//33
f 19//33 21//33 15//33
f 23//33 25//33 31//33
f 27//33 29//33 31//33
f 31//33 33//33 35//33
f 35//33 37//33 39//33
f 39//33 41//33 43//33
f 43//33 45//33 47//33
f 47//33 49//33 55//33
f 51//33 53//33 55//33
f 55//33 57//33 63//33
f 59//33 61//33 63//33
f 63//33 3//33 15//33
f 7//33 13//33 15//33
f 15//34 21//34 23//34
f 25//33 27//33 31//33
f 31//33 35//33 47//33
f 39//33 43//33 47//33
f 49//33 51//33 55//33
f 57//33 59//33 63//33
f 3//33 7//33 15//33
f 15//33 23//33 31//33
f 35//33 39//33 47//33
f 47//33 55//33 63//33
f 63//33 15//33 47//33
f 72//35 105//35 73//35
f 85//36 118//36 86//36
f 71//37 104//37 72//37
f 84//20 117//20 85//20
f 70//38 103//38 71//38
f 83//39 116//39 84//39
f 96//32 98//32 66//32
f 69//40 102//40 70//40
f 82//18 115//18 83//18
f 95//31 128//31 96//31
f 68//4 101//4 69//4
f 81//17 114//17 82//17
f 94//41 127//41 95//41
f 67//42 100//42 68//42
f 80//16 113//16 81//16
f 93//29 126//29 94//29
f 65//2 99//2 67//2
f 79//15 112//15 80//15
f 92//43 125//43 93//43
f 66//1 97//1 65//1
f 78//44 111//44 79//44
f 91//45 124//45 92//45
f 77//13 110//13 78//13
f 90//46 123//46 91//46
f 76//47 109//47 77//47
f 89//48 122//48 90//48
f 75//49 108//49 76//49
f 88//50 121//50 89//50
f 74//51 107//51 75//51
f 87//52 120//52 88//52
f 58//29 94//29 60//29
f 14//7 72//7 16//7
f 107//53 140//53 108//53
f 120//54 153//54 121//54
f 106//55 139//55 107//55
f 119//56 152//56 120//56
f 105//57 138//57 106//57
f 118//58 151//58 119//58
f 104//59 137//59 105//59
f 117//60 150//60 118//60
f 103//61 136//61 104//61
f 116//62 149//62 117//62
f 102//63 135//63 103//63
f 115//64 148//64 116//64
f 128//32 130//32 98//32
f 101//65 134//65 102//65
f 114//66 147//66 115//66
f 127//67 160//67 128//67
f 100//68 133//68 101//68
f 113//17 146//17 114//17
f 126//69 159//69 127//69
f 99//70 132//70 100//70
f 112//16 145//16 113//16
f 125//71 158//71 126//71
f 97//72 131//72 99//72
f 111//73 144//73 112//73
f 124//74 157//74 125//74
f 98//1 129//1 97//1
f 110//75 143//75 111//75
f 123//76 156//76 124//76
f 109//77 142//77 110//77
f 122//78 155//78 123//78
f 86//79 119//79 87//79
f 73//80 106//80 74//80
f 130//81 161//81 129//81
f 142//82 175//82 143//82
f 155//83 188//83 156//83
f 141//84 174//84 142//84
f 154//85 187//85 155//85
f 140//86 173//86 141//86
f 153//87 186//87 154//87
f 139//88 172//88 140//88
f 152//89 185//89 153//89
f 138//90 171//90 139//90
f 151//91 184//91 152//91
f 137//92 170//92 138//92
f 150//93 183//93 151//93
f 136//94 169//94 137//94
f 149//95 182//95 150//95
f 135//96 168//96 136//96
f 148//97 181//97 149//97
f 134//98 167//98 135//98
f 147//99 180//99 148//99
f 160//100 162//100 130//100
f 133//101 166//101 134//101
f 146//102 179//102 147//102
f 159//103 192//103 160//103
f 132//104 165//104 133//104
f 145//105 178//105 146//105
f 158//106 191//106 159//106
f 131//107 164//107 132//107
f 144//108 177//108 145//108
f 157//109 190//109 158//109
f 129//110 163//110 131//110
f 121//111 154//111 122//111
f 108//112 141//112 109//112
f 164//113 197//113 165//113
f 177//105 210//105 178//105
f 190//106 223//106 191//106
f 163//107 196//107 164//107
f 176//108 209//108 177//108
f 189//114 222//114 190//114
f 161//110 195//110 163//110
f 175//115 208//115 176//115
f 188//116 221//116 189//116
f 162//81 193//81 161//81
f 174//82 207//82 175//82
f 187//117 220//117 188//117
f 173//118 206//118 174//118
f 186//119 219//119 187//119
f 172//120 205//120 173//120
f 185//121 218//121 186//121
f 171//122 204//122 172//122
f 184//123 217//123 185//123
f 170//124 203//124 171//124
f 183//125 216//125 184//125
f 169//126 202//126 170//126
f 182//127 215//127 183//127
f 168//128 201//128 169//128
f 181//129 214//129 182//129
f 167//130 200//130 168//130
f 180//131 213//131 181//131
f 166//132 199//132 167//132
f 179//99 212//99 180//99
f 192//100 194//100 162//100
f 165//133 198//133 166//133
f 156//134 189//134 157//134
f 143//115 176//115 144//115
f 212//131 245//131 213//131
f 198//132 231//132 199//132
f 211//99 244//99 212//99
f 224//100 226//100 194//100
f 197//133 230//133 198//133
f 210//102 243//102 211//102
f 223//103 256//103 224//103
f 196//113 229//113 197//113
f 209//105 242//105 210//105
f 222//106 255//106 223//106
f 195//107 228//107 196//107
f 208//108 241//108 209//108
f 221//114 254//114 222//114
f 193//110 227//110 195//110
f 207//115 240//115 208//115
f 220//116 253//116 221//116
f 194//81 225//81 193//81
f 206//82 239//82 207//82
f 219//117 252//117 220//117
f 205//118 238//118 206//118
f 218//119 251//119 219//119
f 204//120 237//120 205//120
f 217//121 250//121 218//121
f 203//122 236//122 204//122
f 216//123 249//123 217//123
f 202//124 235//124 203//124
f 215//125 248//125 216//125
f 201//126 234//126 202//126
f 214//127 247//127 215//127
f 200//128 233//128 201//128
f 191//103 224//103 192//103
f 178//102 211//102 179//102
f 243//135 235//135 251//135
f 227//135 225//135 226//135
f 226//135 256//135 227//135
f 255//135 254//135 253//135
f 253//135 252//135 251//135
f 251//135 250//135 249//135
f 249//135 248//135 247//135
f 247//135 246//135 243//135
f 245//135 244//135 243//135
f 243//135 242//135 241//135
f 241//135 240//135 239//135
f 239//135 238//135 237//135
f 237//135 236//135 235//135
f 235//135 234//135 233//135
f 233//135 232//135 235//135
f 231//135 230//135 229//135
f 229//135 228//135 227//135
f 227//135 256//135 255//135
f 255//135 253//135 227//135
f 251//135 249//135 243//135
f 246//135 245//135 243//135
f 243//135 241//135 235//135
f 239//135 237//135 235//135
f 235//135 232//135 231//135
f 231//135 229//135 235//135
f 227//135 253//135 251//135
f 249//135 247//135 243//135
f 241//135 239//135 235//135
f 235//135 229//135 227//135
f 227//135 251//135 235//135
f 199//130 232//130 200//130
f 213//129 246//129 214//129
f 40//20 84//20 85//20
f 22//11 75//11 76//11
f 4//2 65//2 67//2
f 48//24 88//24 89//24
f 30//15 79//15 80//15
f 12//6 70//6 71//6
f 56//28 92//28 93//28
f 38//19 83//19 84//19
f 20//10 74//10 75//10
f 64//32 96//32 66//32
f 2//1 66//1 65//1
f 46//23 87//23 88//23
f 28//14 78//14 79//14
f 10//5 69//5 70//5
f 54//27 91//27 92//27
f 36//18 82//18 83//18
f 18//9 73//9 74//9
f 62//31 95//31 96//31
f 44//22 86//22 87//22
f 26//13 77//13 78//13
f 8//4 68//4 69//4
f 52//26 90//26 91//26
f 34//17 81//17 82//17
f 16//8 72//8 73//8
f 60//30 94//30 95//30
f 42//21 85//21 86//21
f 24//12 76//12 77//12
f 6//3 67//3 68//3
f 50//25 89//25 90//25
f 32//16 80//16 81//16
f 72//35 104//35 105//35
f 85//36 117//36 118//36
f 71//37 103//37 104//37
f 84//20 116//20 117//20
f 70//38 102//38 103//38
f 83//39 115//39 116//39
f 96//32 128//32 98//32
f 69//40 101//40 102//40
f 82//18 114//18 115//18
f 95//31 127//31 128//31
f 68//4 100//4 101//4
f 81//17 113//17 114//17
f 94//41 126//41 127//41
f 67//42 99//42 100//42
f 80//16 112//16 113//16
f 93//29 125//29 126//29
f 65//2 97//2 99//2
f 79//15 111//15 112//15
f 92//43 124//43 125//43
f 66//1 98//1 97//1
f 78//44 110//44 111//44
f 91//45 123//45 124//45
f 77//13 109//13 110//13
f 90//46 122//46 123//46
f 76//47 108//47 109//47
f 89//48 121//48 122//48
f 75//49 107//49 108//49
f 88//50 120//50 121//50
f 74//51 106//51 107//51
f 87//52 119//52 120//52
f 58//29 93//29 94//29
f 14//7 71//7 72//7
f 107//136 139//136 140//136
f 120//54 152//54 153//54
f 106//55 138//55 139//55
f 119//56 151//56 152//56
f 105//57 137//57 138//57
f 118//58 150//58 151//58
f 104//59 136//59 137//59
f 117//60 149//60 150//60
f 103//61 135//61 136//61
f 116//62 148//62 149//62
f 102//63 134//63 135//63
f 115//64 147//64 148//64
f 128//32 160//32 130//32
f 101//65 133//65 134//65
f 114//66 146//66 147//66
f 127//67 159//67 160//67
f 100//68 132//68 133//68
f 113//17 145//17 146//17
f 126//69 158//69 159//69
f 99//70 131//70 132//70
f 112//16 144//16 145//16
f 125//71 157//71 158//71
f 97//72 129//72 131//72
f 111//73 143//73 144//73
f 124//74 156//74 157//74
f 98//1 130//1 129//1
f 110//75 142//75 143//75
f 123//76 155//76 156//76
f 109//77 141//77 142//77
f 122//78 154//78 155//78
f 86//79 118//79 119//79
f 73//80 105//80 106//80
f 130//81 162//81 161//81
f 142//82 174//82 175//82
f 155//83 187//83 188//83
f 141//84 173//84 174//84
f 154//85 186//85 187//85
f 140//86 172//86 173//86
f 153//87 185//87 186//87
f 139//88 171//88 172//88
f 152//89 184//89 185//89
f 138//90 170//90 171//90
f 151//91 183//91 184//91
f 137//92 169//92 170//92
f 150//93 182//93 183//93
f 136//94 168//94 169//94
f 149//95 181//95 182//95
f 135//96 167//96 168//96
f 148//97 180//97 181//97
f 134//98 166//98 167//98
f 147//99 179//99 180//99
f 160//100 192//100 162//100
f 133//101 165//101 166//101
f 146//102 178//102 179//102
f 159//103 191//103 192//103
f 132//104 164//104 165//104
f 145//105 177//105 178//105
f 158//106 190//106 191//106
f 131//107 163//107 164//107
f 144//108 176//108 177//108
f 157//109 189//109 190//109
f 129//110 161//110 163//110
f 121//111 153//111 154//111
f 108//112 140//112 141//112
f 164//113 196//113 197//113
f 177//105 209//105 210//105
f 190//106 222//106 223//106
f 163//107 195//107 196//107
f 176//108 208//108 209//108
f 189//114 221//114 222//114
f 161//110 193//110 195//110
f 175//115 207//115 208//115
f 188//116 220//116 221//116
f 162//81 194//81 193//81
f 174//82 206//82 207//82
f 187//117 219//117 220//117
f 173//118 205//118 206//118
f 186//119 218//119 219//119
f 172//120 204//120 205//120
f 185//121 217//121 218//121
f 171//122 203//122 204//122
f 184//123 216//123 217//123
f 170//124 202//124 203//124
f 183//125 215//125 216//125
f 169//126 201//126 202//126
f 182//127 214//127 215//127
f 168//128 200//128 201//128
f 181//129 213//129 214//129
f 167//130 199//130 200//130
f 180//131 212//131 213//131
f 166//132 198//132 199//132
f 179//99 211//99 212//99
f 192//100 224//100 194//100
f 165//133 197//133 198//133
f 156//134 188//134 189//134
f 143//115 175//115 176//115
f 212//131 244//131 245//131
f 198//132 230//132 231//132
f 211//99 243//99 244//99
f 224//100 256//100 226//100
f 197//133 229//133 230//133
f 210//102 242//102 243//102
f 223//103 255//103 256//103
f 196//113 228//113 229//113
f 209//105 241//105 242//105
f 222//106 254//106 255//106
f 195//107 227//107 228//107
f 208//108 240//108 241//108
f 221//114 253//114 254//114
f 193//110 225//110 227//110
f 207//115 239//115 240//115
f 220//116 252//116 253//116
f 194//81 226//81 225//81
f 206//82 238//82 239//82
f 219//117 251//117 252//117
f 205//118 237//118 238//118
f 218//119 250//119 251//119
f 204//120 236//120 237//120
f 217//121 249//121 250//121
f 203//122 235//122 236//122
f 216//123 248//123 249//123
f 202//124 234//124 235//124
f 215//125 247//125 248//125
f 201//126 233//126 234//126
f 214//127 246//127 247//127
f 200//128 232//128 233//128
f 191//103 223//103 224//103
f 178//102 210//102 211//102
f 199//130 231//130 232//130
f 213//129 245//129 246//129
